<svg width="35" height="26" viewBox="0 0 35 26" fill="none" xmlns="http://www.w3.org/2000/svg">
<path d="M16.7256 0.506877C16.8272 0.40502 16.9479 0.324207 17.0808 0.269068C17.2137 0.213929 17.3561 0.185547 17.5 0.185547C17.6439 0.185547 17.7863 0.213929 17.9192 0.269068C18.0521 0.324207 18.1728 0.40502 18.2744 0.506877L21.5556 3.78813C21.6573 3.88982 21.738 4.01055 21.793 4.14341C21.8481 4.27628 21.8764 4.41869 21.8764 4.5625C21.8764 4.70632 21.8481 4.84872 21.793 4.98159C21.738 5.11446 21.6573 5.23519 21.5556 5.33688C21.4539 5.43857 21.3332 5.51924 21.2003 5.57427C21.0675 5.62931 20.9251 5.65763 20.7813 5.65763C20.6374 5.65763 20.495 5.62931 20.3622 5.57427C20.2293 5.51924 20.1086 5.43857 20.0069 5.33688L18.5938 3.92156V7.84375C18.5938 8.13383 18.4785 8.41203 18.2734 8.61715C18.0683 8.82227 17.7901 8.9375 17.5 8.9375C17.2099 8.9375 16.9317 8.82227 16.7266 8.61715C16.5215 8.41203 16.4063 8.13383 16.4063 7.84375V3.92156L14.9931 5.33688C14.8914 5.43857 14.7707 5.51924 14.6378 5.57427C14.505 5.62931 14.3626 5.65763 14.2188 5.65763C14.0749 5.65763 13.9325 5.62931 13.7997 5.57427C13.6668 5.51924 13.5461 5.43857 13.4444 5.33688C13.3427 5.23519 13.262 5.11446 13.207 4.98159C13.1519 4.84872 13.1236 4.70632 13.1236 4.5625C13.1236 4.41869 13.1519 4.27628 13.207 4.14341C13.262 4.01055 13.3427 3.88982 13.4444 3.78813L16.7256 0.506877ZM5.12532 7.50031C5.33042 7.29527 5.60857 7.18008 5.8986 7.18008C6.18862 7.18008 6.46677 7.29527 6.67188 7.50031L9.765 10.5934C9.96424 10.7997 10.0745 11.076 10.072 11.3628C10.0695 11.6496 9.95447 11.9239 9.75168 12.1267C9.54889 12.3295 9.27456 12.4445 8.98779 12.447C8.70101 12.4495 8.42472 12.3392 8.21844 12.14L5.12532 9.04688C4.92027 8.84177 4.80508 8.56362 4.80508 8.2736C4.80508 7.98357 4.92027 7.70542 5.12532 7.50031ZM29.8747 7.50031C30.0797 7.70542 30.1949 7.98357 30.1949 8.2736C30.1949 8.56362 30.0797 8.84177 29.8747 9.04688L26.7816 12.14C26.6807 12.2445 26.56 12.3278 26.4265 12.3851C26.2931 12.4424 26.1496 12.4726 26.0043 12.4739C25.8591 12.4751 25.7151 12.4475 25.5807 12.3925C25.4463 12.3375 25.3241 12.2563 25.2214 12.1536C25.1187 12.0509 25.0375 11.9287 24.9825 11.7943C24.9275 11.6599 24.8999 11.5159 24.9011 11.3707C24.9024 11.2254 24.9326 11.0819 24.9899 10.9485C25.0472 10.815 25.1305 10.6943 25.235 10.5934L28.3281 7.50031C28.5332 7.29527 28.8114 7.18008 29.1014 7.18008C29.3914 7.18008 29.6696 7.29527 29.8747 7.50031ZM17.5 13.3125C18.6521 13.3121 19.7841 13.6151 20.782 14.191C21.7799 14.7668 22.6086 15.5952 23.1848 16.5929C23.761 17.5906 24.0644 18.7224 24.0645 19.8745C24.0646 21.0266 23.7614 22.1585 23.1853 23.1563H11.8125C11.2363 22.1583 10.9331 21.0263 10.9333 19.874C10.9335 18.7216 11.2371 17.5897 11.8136 16.5919C12.39 15.5942 13.2191 14.7658 14.2173 14.1901C15.2155 13.6145 16.3477 13.3118 17.5 13.3125ZM25.6156 23.1563C26.152 21.8281 26.354 20.3886 26.2041 18.9641C26.0542 17.5396 25.5569 16.1737 24.7558 14.9863C23.9548 13.7989 22.8745 12.8263 21.6097 12.1539C20.345 11.4815 18.9345 11.1299 17.5022 11.1299C16.0698 11.1299 14.6594 11.4815 13.3947 12.1539C12.1299 12.8263 11.0496 13.7989 10.2485 14.9863C9.44748 16.1737 8.95016 17.5396 8.80024 18.9641C8.65033 20.3886 8.85242 21.8281 9.38875 23.1563H1.09157C0.801485 23.1563 0.523286 23.2715 0.318168 23.4766C0.11305 23.6817 -0.00218391 23.9599 -0.00218391 24.25C-0.00218391 24.5401 0.11305 24.8183 0.318168 25.0234C0.523286 25.2285 0.801485 25.3438 1.09157 25.3438H33.9041C34.1941 25.3438 34.4723 25.2285 34.6775 25.0234C34.8826 24.8183 34.9978 24.5401 34.9978 24.25C34.9978 23.9599 34.8826 23.6817 34.6775 23.4766C34.4723 23.2715 34.1941 23.1563 33.9041 23.1563H25.6134H25.6156ZM3.58559e-06 19.875C3.58559e-06 19.5849 0.115238 19.3067 0.320356 19.1016C0.525473 18.8965 0.803673 18.7813 1.09375 18.7813H5.46875C5.75883 18.7813 6.03703 18.8965 6.24215 19.1016C6.44727 19.3067 6.5625 19.5849 6.5625 19.875C6.5625 20.1651 6.44727 20.4433 6.24215 20.6484C6.03703 20.8535 5.75883 20.9688 5.46875 20.9688H1.09375C0.803673 20.9688 0.525473 20.8535 0.320356 20.6484C0.115238 20.4433 3.58559e-06 20.1651 3.58559e-06 19.875ZM28.4375 19.875C28.4375 19.5849 28.5527 19.3067 28.7579 19.1016C28.963 18.8965 29.2412 18.7813 29.5313 18.7813H33.9063C34.1963 18.7813 34.4745 18.8965 34.6797 19.1016C34.8848 19.3067 35 19.5849 35 19.875C35 20.1651 34.8848 20.4433 34.6797 20.6484C34.4745 20.8535 34.1963 20.9688 33.9063 20.9688H29.5313C29.2412 20.9688 28.963 20.8535 28.7579 20.6484C28.5527 20.4433 28.4375 20.1651 28.4375 19.875Z" fill="white"/>
</svg>
