<svg width="6" height="6" viewBox="0 0 6 6" fill="none" xmlns="http://www.w3.org/2000/svg">
<path d="M0.58667 3.28C0.58667 2.61333 0.826671 2.04 1.29334 1.57333C1.77334 1.09333 2.33334 0.866667 3 0.866667C3.65334 0.866667 4.22667 1.10667 4.69334 1.57333C5.16001 2.05333 5.4 2.61333 5.4 3.28C5.4 3.94667 5.16001 4.52 4.69334 5C4.22667 5.48 3.65334 5.72 3 5.72C2.34667 5.72 1.77334 5.48 1.29334 5C0.813338 4.52 0.58667 3.94667 0.58667 3.28ZM1.76 3.28C1.76 3.62667 1.88 3.92 2.12 4.17333C2.37334 4.42667 2.66667 4.54667 3.01334 4.54667C3.36 4.54667 3.65334 4.42667 3.90667 4.17333C4.16 3.92 4.28 3.62667 4.28 3.28C4.28387 3.11521 4.25257 2.9515 4.1882 2.79976C4.12382 2.64802 4.02785 2.51174 3.90667 2.4C3.78965 2.28206 3.65051 2.18837 3.49721 2.12431C3.34391 2.06024 3.17948 2.02706 3.01334 2.02667C2.66667 2.02667 2.37334 2.14667 2.12 2.38667C1.88 2.62667 1.76 2.92 1.76 3.28Z" fill="white"/>
</svg>
